<svg xmlns="http://www.w3.org/2000/svg" width="365" height="102" viewBox="0 0 365 102">
    <defs>
        <filter id="a" width="103.9%" height="114%" x="-2%" y="-5%" filterUnits="objectBoundingBox">
            <feOffset dy="2" in="SourceAlpha" result="shadowOffsetOuter1"/>
            <feGaussianBlur in="shadowOffsetOuter1" result="shadowBlurOuter1" stdDeviation="2"/>
            <feColorMatrix in="shadowBlurOuter1" result="shadowMatrixOuter1" values="0 0 0 0 0 0 0 0 0 0 0 0 0 0 0 0 0 0 0.5 0"/>
            <feMerge>
                <feMergeNode in="shadowMatrixOuter1"/>
                <feMergeNode in="SourceGraphic"/>
            </feMerge>
        </filter>
    </defs>
    <g fill="#FFF" fill-rule="evenodd" filter="url(#a)" transform="translate(4 -4)">
        <path d="M151.914 83.082c-.507 4.135-2.305 7.74-5.393 10.814-3.694 3.679-8.16 5.518-13.397 5.518-4.415 0-8.288-1.707-11.616-5.121v4.229h-6.89v-27.69c-2.152.243-3.894 1.026-5.226 2.348-2.24 2.203-3.406 4.824-3.495 7.864v17.478h-6.89V64.524h6.89v4.592c2.397-3.22 5.304-5.017 8.721-5.391V45.658h6.89V66.87c3.328-3.414 7.2-5.121 11.616-5.121 5.237 0 9.703 1.839 13.397 5.517 3.088 3.074 4.886 6.68 5.393 10.815.509-4.136 2.311-7.74 5.408-10.815 3.706-3.678 8.166-5.517 13.38-5.517 4.483 0 8.41 1.343 11.784 4.03.554.463 1.098.959 1.63 1.487.223.22.855.914 1.898 2.082l-3.462 3.469-18.14 18.007c1.154 1.013 3.25 1.52 6.29 1.52 3.285 0 6.092-1.146 8.422-3.437.288-.308.876-.99 1.764-2.048l6.89 2.445c-1.686 2.313-2.907 3.843-3.661 4.592-3.706 3.679-8.177 5.518-13.414 5.518-5.215 0-9.675-1.84-13.38-5.518-3.098-3.074-4.9-6.679-5.41-10.814zM59.217 77.61c.588-3.923 2.363-7.355 5.324-10.294 3.695-3.668 8.16-5.501 13.397-5.501 4.394 0 8.255 1.696 11.583 5.088v-2.38h6.924v34.032H89.52v-4.262c-3.328 3.414-7.19 5.12-11.583 5.12-5.237 0-9.702-1.833-13.397-5.5-3.217-3.194-5.034-6.967-5.45-11.322-.572 3.951-2.334 7.444-5.284 10.48-3.44 3.546-6.89 5.34-10.352 5.385v.066H29.808V45.658h10.785c3.084 0 5.725 1.085 7.921 3.255 2.197 2.17 3.296 4.785 3.296 7.847 0 3.15-1.598 5.099-4.793 5.848 2.307.33 4.931 1.96 7.871 4.89 2.541 2.531 3.984 5.902 4.33 10.112zm-22.519-9.716V91.65h6.757v-.1c1.42-.088 3.184-1.222 5.292-3.403 2.33-2.379 3.495-5.209 3.495-8.49 0-3.239-1.16-6.009-3.478-8.31-2.319-2.302-5.11-3.453-8.371-3.453h-3.695zm0-15.397v8.36h4.494c1.02-.089 1.897-.474 2.63-1.157.798-.727 1.198-1.707 1.198-2.94 0-1.234-.417-2.253-1.249-3.057-.832-.804-1.891-1.206-3.178-1.206h-3.895zm52.823 30.628v-5.022c-.4-2.136-1.464-4.075-3.195-5.815-2.33-2.29-5.126-3.436-8.388-3.436-3.284 0-6.085 1.146-8.404 3.436-2.32 2.291-3.479 5.066-3.479 8.326 0 3.238 1.16 6.008 3.479 8.31 2.319 2.302 5.12 3.452 8.404 3.452 3.262 0 6.058-1.145 8.388-3.436 1.73-1.74 2.796-3.678 3.195-5.815zm31.987-5.187v5.32c.422 2.07 1.487 3.953 3.195 5.65 2.33 2.29 5.137 3.435 8.421 3.435s6.086-1.145 8.405-3.436c2.319-2.29 3.478-5.066 3.478-8.326 0-3.238-1.16-6.013-3.478-8.326-2.32-2.313-5.12-3.469-8.405-3.469-3.284 0-6.09 1.156-8.42 3.47-1.71 1.695-2.774 3.59-3.196 5.682zm54.42-8.26c-.776-.595-2.518-.892-5.225-.892-3.262 0-6.052 1.15-8.371 3.453-2.32 2.302-3.479 5.082-3.479 8.342 0 2.665.3 4.395.9 5.188l16.176-16.09zm19.272-.562c2.575-3.458 5.737-5.275 9.487-5.451v7.103c-2.508.133-4.505.937-5.992 2.412-2.24 2.203-3.406 4.824-3.495 7.864v17.478h-6.89V64.524h6.89v4.592zM1.56 90.715h23.618v1.312H1.561v5.903H.153V84.811h1.408v5.904zm-1.407-8.82v-1.311h10.464c-1.147-1.108-1.72-2.44-1.72-3.994 0-1.691.568-3.066 1.704-4.125 1.137-1.06 2.57-1.604 4.301-1.633h10.276v1.312h-10.15c-1.304 0-2.417.44-3.34 1.319-.923.88-1.384 1.922-1.384 3.127 0 1.205.454 2.245 1.36 3.12.418.388.85.68 1.299.874h12.215v1.312H.153zM22.3 63.734c1.21-1.234 1.815-2.702 1.815-4.402 0-1.827-.694-3.387-2.08-4.68a8.002 8.002 0 0 0-.548-.466l.532-1.385c.375.253.735.54 1.08.86 1.678 1.565 2.517 3.455 2.517 5.67 0 2.207-.84 4.092-2.518 5.657-1.679 1.564-3.707 2.346-6.084 2.346-2.367 0-4.39-.782-6.069-2.346-1.679-1.565-2.518-3.45-2.518-5.656 0-1.895.61-3.552 1.83-4.97.209-.234.438-.467.688-.7.094-.088.188-.17.282-.248L22.3 63.733zm-10.964-8.367c-.938 1.137-1.407 2.459-1.407 3.965 0 1.817.69 3.372 2.072 4.664 1.382 1.293 3.053 1.94 5.013 1.94 1.616 0 3.034-.438 4.254-1.313l-9.932-9.256zM241.568 67.598c.102-.104.207-.208.312-.312 3.753-3.676 8.27-5.514 13.552-5.514 5.304 0 9.826 1.838 13.568 5.514 3.742 3.676 5.613 8.112 5.613 13.307S272.742 90.223 269 93.9c-3.742 3.676-8.264 5.514-13.568 5.514-5.281 0-9.799-1.838-13.552-5.514-3.753-3.677-5.63-8.112-5.63-13.307 0-1.515.16-2.964.48-4.35l-.108.107c-3.574 3.51-7.888 5.266-12.945 5.266h-6.371v16.906h-6.978v-52.83h15.304c4.338.572 8 2.322 10.99 5.25 3.573 3.521 5.36 7.748 5.36 12.679 0 1.382-.138 2.708-.414 3.977zM217.306 52.56v22.19h6.371c3.101 0 5.759-1.085 7.972-3.253 2.214-2.168 3.32-4.793 3.32-7.875 0-3.06-1.106-5.669-3.32-7.826-2.213-2.157-4.87-3.236-7.972-3.236h-6.371zm72.982 11.999v-.013h.417c.343-.006.687-.004 1.032 0h4.787V51.8h6.978v12.745h6.237v6.835h-6.237v27.142h-6.978V71.38h-5.121c-2.383.184-4.294.98-5.733 2.39-2.27 2.2-3.418 3.751-3.54 7.858v16.894h-6.978V64.545h6.978v4.677c2.878-3.815 5.5-4.554 8.158-4.664zm-34.856 4.247c3.326 0 6.163 1.156 8.512 3.467 2.348 2.311 3.522 5.085 3.522 8.32 0 3.259-1.174 6.032-3.522 8.322-2.349 2.29-5.186 3.434-8.512 3.434-3.326 0-6.163-1.145-8.512-3.434-2.348-2.29-3.523-5.063-3.523-8.321 0-3.236 1.175-6.01 3.523-8.321 2.349-2.311 5.186-3.467 8.512-3.467zm84.949 14.33v-5.019c-.405-2.135-1.483-4.072-3.236-5.811-2.36-2.29-5.191-3.434-8.495-3.434-3.326 0-6.163 1.145-8.512 3.434-2.348 2.29-3.523 5.063-3.523 8.32 0 3.237 1.175 6.005 3.523 8.305 2.349 2.3 5.186 3.45 8.512 3.45 3.304 0 6.135-1.144 8.495-3.433 1.753-1.74 2.831-3.676 3.236-5.812zm0-16.212v-2.378h7.012v34.01h-7.012v-4.26c-3.371 3.413-7.281 5.119-11.731 5.119-5.304 0-9.827-1.833-13.568-5.498-3.742-3.665-5.613-8.095-5.613-13.29 0-5.195 1.87-9.625 5.613-13.29 3.741-3.666 8.264-5.498 13.568-5.498 4.45 0 8.36 1.695 11.731 5.085zM357 45.658v52.864h-7.012V45.658H357zM177.323 24.173l-30.095 17.375c-.92-1.094-1.765-2.43-1.282-3.24 1.787-3 22.972-15.49 36.276-22.865-1.158-5.52-1.914-9.153-.734-9.515.959-.296 2.83 2.661 4.902 7.233 3.33-1.797 5.686-2.993 6.347-3.203 2.358-.745 5.413-1.422 5.053 2.869-.151 1.803-3.906 1.91-4.155 1.888-1.327-.113-3.5.55-5.866 1.662 4.304 10.548 8.774 26.271 7.43 33.54.23 1.977-.913 4.142-3.02 5.359-2.696 1.556-5.947.97-7.262-1.307-.67-1.16-.708-2.534-.23-3.81 1.887-10.998.01-22.527-1.71-31.061-2.347 1.571-4.453 3.374-5.654 5.075zm-.44 1.312c.153.526.587 1.079.53 1.488-.065.466-26.12 15.585-28.428 16.384 0 0-.517-.455-1.134-1.111l29.031-16.761zm8.961-8.346a1.38 1.38 0 0 0 .516-1.884 1.38 1.38 0 0 0-1.889-.495 1.38 1.38 0 0 0-.516 1.884 1.38 1.38 0 0 0 1.89.495z"/>
    </g>
</svg>
