<svg xmlns="http://www.w3.org/2000/svg" width="144" height="38" viewBox="0 0 144 38">
    <g fill="none" fill-rule="evenodd">
        <path fill="#FFF" d="M61.367 31.592c-.204 1.623-.925 3.037-2.164 4.243C57.72 37.278 55.928 38 53.826 38c-1.772 0-3.326-.67-4.662-2.01v1.66H46.4V26.786c-.863.095-1.562.403-2.097.921-.9.865-1.367 1.893-1.402 3.086v6.857h-2.766V24.311H42.9v1.802c.961-1.264 2.128-1.969 3.5-2.116V16.91h2.764v8.322c1.336-1.34 2.89-2.009 4.662-2.009 2.102 0 3.894.722 5.377 2.165 1.239 1.206 1.96 2.62 2.164 4.243.204-1.623.927-3.037 2.17-4.243 1.487-1.443 3.277-2.165 5.37-2.165 1.799 0 3.375.527 4.729 1.582.222.181.44.376.654.583.09.086.343.359.762.817l-1.39 1.36-7.28 7.066c.464.397 1.305.596 2.525.596 1.318 0 2.445-.45 3.38-1.348.115-.121.351-.39.708-.804l2.765.96c-.677.907-1.167 1.507-1.47 1.801C72.803 37.278 71.01 38 68.907 38c-2.093 0-3.883-.722-5.37-2.165-1.243-1.206-1.966-2.62-2.17-4.243zm-37.201-2.147c.236-1.539.948-2.885 2.136-4.039 1.483-1.439 3.275-2.158 5.377-2.158 1.763 0 3.313.665 4.649 1.996v-.933h2.778v13.352h-2.778v-1.672C34.992 37.33 33.442 38 31.679 38c-2.102 0-3.894-.72-5.377-2.158-1.29-1.253-2.02-2.734-2.186-4.442-.23 1.55-.937 2.92-2.121 4.111-1.38 1.391-2.765 2.096-4.155 2.113v.026h-5.476V16.91h4.328c1.237 0 2.297.425 3.179 1.276.881.851 1.322 1.877 1.322 3.079 0 1.235-.641 2-1.923 2.294.926.13 1.979.77 3.159 1.919 1.02.993 1.599 2.316 1.737 3.967zm-9.037-3.812v9.32h2.711v-.038c.57-.035 1.278-.48 2.124-1.335.935-.934 1.403-2.044 1.403-3.332 0-1.27-.466-2.357-1.396-3.26-.93-.903-2.05-1.355-3.36-1.355H15.13zm0-6.04v3.28h1.803a1.74 1.74 0 0 0 1.055-.455c.32-.285.481-.67.481-1.153 0-.484-.167-.884-.5-1.2-.335-.315-.76-.473-1.276-.473h-1.563zm21.199 12.016v-1.97c-.16-.838-.588-1.599-1.283-2.282-.935-.898-2.057-1.348-3.366-1.348-1.318 0-2.442.45-3.373 1.348-.93.9-1.396 1.988-1.396 3.267 0 1.27.466 2.357 1.396 3.26.93.903 2.055 1.355 3.373 1.355 1.31 0 2.431-.45 3.366-1.348.695-.683 1.122-1.444 1.283-2.282zm12.836-2.035v2.087c.17.812.597 1.551 1.283 2.217.935.899 2.061 1.348 3.38 1.348 1.317 0 2.441-.45 3.372-1.348.93-.899 1.396-1.988 1.396-3.267 0-1.27-.465-2.36-1.396-3.267-.93-.907-2.055-1.36-3.373-1.36s-2.444.453-3.38 1.36c-.685.666-1.112 1.409-1.282 2.23zm21.84-3.24c-.311-.234-1.01-.35-2.097-.35-1.309 0-2.429.45-3.36 1.354-.93.903-1.395 1.994-1.395 3.273 0 1.046.12 1.724.36 2.035l6.492-6.313zm7.734-.221c1.033-1.357 2.302-2.07 3.807-2.139v2.787c-1.006.052-1.807.367-2.404.946-.9.865-1.367 1.893-1.403 3.086v6.857h-2.765V24.311h2.765v1.802z"/>
        <path fill="#B32C21" d="M.745 34.242h9.444v.518H.745v2.33H.182v-5.179h.563v2.331zM.182 30.76v-.518h4.184c-.459-.437-.688-.963-.688-1.577 0-.667.227-1.21.682-1.628.454-.419 1.027-.634 1.72-.645h4.109v.518h-4.06c-.52 0-.966.174-1.335.52-.369.348-.553.76-.553 1.235 0 .476.181.887.544 1.232.167.153.34.268.519.345h4.885v.518H.182zm8.856-7.17a2.383 2.383 0 0 0 .725-1.739c0-.721-.277-1.337-.832-1.847a3.19 3.19 0 0 0-.218-.185l.212-.546c.15.1.294.213.432.34.671.617 1.007 1.363 1.007 2.238 0 .871-.336 1.615-1.007 2.233-.672.618-1.483.927-2.433.927-.947 0-1.756-.31-2.427-.927-.671-.618-1.007-1.362-1.007-2.233 0-.748.244-1.402.732-1.962a4.29 4.29 0 0 1 .388-.375l4.428 4.075zm-4.384-3.304c-.376.449-.563.97-.563 1.565 0 .718.276 1.331.828 1.842.553.51 1.221.765 2.005.765.646 0 1.213-.172 1.701-.518l-3.971-3.654zM96.91 25.517l.126-.122c1.508-1.443 3.322-2.164 5.443-2.164 2.13 0 3.947.721 5.45 2.164 1.502 1.442 2.254 3.182 2.254 5.22 0 2.039-.752 3.78-2.254 5.221-1.503 1.443-3.32 2.164-5.45 2.164-2.121 0-3.935-.721-5.443-2.164-1.507-1.442-2.26-3.182-2.26-5.22 0-.595.063-1.163.191-1.707a8.388 8.388 0 0 1-.043.042c-1.435 1.377-3.168 2.066-5.199 2.066h-2.559v6.633h-2.802V16.922h6.146c1.742.225 3.214.911 4.414 2.06 1.435 1.382 2.153 3.04 2.153 4.975 0 .542-.055 1.062-.166 1.56zm-9.744-5.9v8.706h2.56c1.245 0 2.312-.426 3.201-1.277.89-.85 1.334-1.88 1.334-3.09 0-1.2-.445-2.223-1.334-3.07-.889-.846-1.956-1.27-3.202-1.27h-2.559zm29.313 4.707v-.005h.167c.138-.002.276-.001.415 0h1.922v-5h2.803v5h2.505v2.682h-2.505v10.65h-2.803V27h-2.057c-.957.072-1.724.384-2.302.937-.912.864-1.373 1.472-1.422 3.084v6.628H110.4V24.32h2.802v1.834c1.156-1.496 2.21-1.786 3.277-1.83zm-14 1.667c1.336 0 2.476.453 3.419 1.36.943.907 1.415 1.995 1.415 3.265 0 1.278-.472 2.366-1.415 3.264-.943.899-2.083 1.348-3.419 1.348-1.336 0-2.475-.45-3.419-1.348-.943-.898-1.414-1.986-1.414-3.264 0-1.27.471-2.358 1.414-3.265.944-.907 2.083-1.36 3.42-1.36zm34.119 5.622v-1.969c-.163-.838-.596-1.598-1.3-2.28-.948-.898-2.085-1.347-3.412-1.347-1.336 0-2.475.449-3.418 1.347-.944.898-1.415 1.986-1.415 3.265 0 1.27.471 2.355 1.415 3.258.943.902 2.082 1.354 3.418 1.354 1.327 0 2.464-.45 3.412-1.348.704-.682 1.137-1.442 1.3-2.28zm0-6.36v-.934h2.816v13.344h-2.816v-1.671c-1.354 1.339-2.925 2.008-4.712 2.008-2.13 0-3.946-.719-5.45-2.157-1.502-1.438-2.254-3.176-2.254-5.214 0-2.039.752-3.777 2.255-5.215 1.503-1.438 3.32-2.157 5.45-2.157 1.786 0 3.357.665 4.71 1.995zm6.675-8.344V37.65h-2.816V16.91h2.816z"/>
        <path fill="#FFF" d="M71.754 7.825l-12.194 7.04c-.375-.447-.72-.993-.525-1.322.722-1.22 9.305-6.282 14.696-9.269-.477-2.251-.79-3.732-.31-3.879.388-.119 1.152 1.089 2 2.955 1.348-.728 2.303-1.212 2.572-1.297.956-.3 2.195-.572 2.054 1.176-.059.734-1.583.772-1.684.763-.539-.047-1.42.22-2.379.67 1.762 4.304 3.597 10.717 3.061 13.677.096.806-.365 1.687-1.219 2.18-1.092.63-2.413.387-2.95-.543-.273-.473-.29-1.033-.098-1.552.751-4.48-.026-9.18-.735-12.66-.951.637-1.804 1.37-2.289 2.06zm-.177.534c.063.214.24.44.217.607-.026.19-10.582 6.316-11.518 6.638 0 0-.21-.186-.462-.454l11.763-6.791zm3.627-3.39a.562.562 0 1 0-.56-.973.562.562 0 0 0 .56.974z"/>
    </g>
</svg>
