<svg xmlns="http://www.w3.org/2000/svg" width="40" height="40" viewBox="0 0 40 40">
    <path fill="#B32C21" fill-rule="evenodd" d="M20 12.727A7.27 7.27 0 0 0 12.727 20 7.27 7.27 0 0 0 20 27.273 7.27 7.27 0 0 0 27.273 20 7.27 7.27 0 0 0 20 12.727zm16.255 5.455C35.418 10.6 29.4 4.582 21.818 3.745V0h-3.636v3.745C10.6 4.582 4.582 10.6 3.745 18.182H0v3.636h3.745c.837 7.582 6.855 13.6 14.437 14.437V40h3.636v-3.745c7.582-.837 13.6-6.855 14.437-14.437H40v-3.636h-3.745zM20 32.727c-7.036 0-12.727-5.69-12.727-12.727 0-7.036 5.69-12.727 12.727-12.727 7.036 0 12.727 5.69 12.727 12.727 0 7.036-5.69 12.727-12.727 12.727z"/>
</svg>
